<?xml version="1.0" encoding="iso-8859-1"?>
<!-- Generator: Adobe Illustrator 21.1.0, SVG Export Plug-In . SVG Version: 6.00 Build 0)  -->
<svg xmlns="http://www.w3.org/2000/svg" xmlns:xlink="http://www.w3.org/1999/xlink" version="1.1" id="Layer_1" x="0px" y="0px" viewBox="0 0 64 64" style="enable-background:new 0 0 64 64;" xml:space="preserve">
<g>
	<path style="fill:#C2CDE7;" d="M61,29.56v4.88c0,0.92-0.62,1.72-1.51,1.94l-3.53,0.88c-0.36,0.09-0.63,0.37-0.72,0.73   c-0.57,2.21-1.44,4.29-2.58,6.21c-0.18,0.32-0.19,0.71,0,1.02l1.87,3.12c0.47,0.79,0.35,1.79-0.3,2.44l-3.45,3.45   c-0.65,0.65-1.65,0.77-2.44,0.3l-3.12-1.87c-0.31-0.19-0.7-0.18-1.02,0c-1.92,1.14-4,2.01-6.22,2.58   c-0.35,0.09-0.63,0.36-0.72,0.72l-0.88,3.53C36.16,60.38,35.36,61,34.44,61h-4.88c-0.92,0-1.72-0.62-1.94-1.51l-0.88-3.53   c-0.09-0.36-0.37-0.63-0.72-0.72c-0.07-0.02-0.13-0.03-0.2-0.06c-2.15-0.56-4.16-1.41-6.02-2.52c-0.32-0.18-0.71-0.19-1.02,0   l-3.12,1.87c-0.79,0.47-1.79,0.35-2.44-0.3l-2.72-2.72l-0.73-0.73c-0.65-0.65-0.77-1.65-0.3-2.44l1.87-3.12   c0.12-0.2,0.16-0.44,0.11-0.67c-0.01-0.12-0.05-0.24-0.11-0.35c-0.45-0.75-0.85-1.53-1.21-2.33c-0.54-1.18-0.98-2.4-1.32-3.68   c-0.01-0.07-0.03-0.13-0.05-0.2c-0.09-0.36-0.36-0.64-0.72-0.73l-3.53-0.88C3.62,36.16,3,35.36,3,34.44v-4.88   c0-0.92,0.62-1.72,1.51-1.94l3.53-0.88c0.36-0.09,0.63-0.37,0.72-0.73c0.57-2.21,1.44-4.29,2.58-6.21c0.18-0.32,0.19-0.71,0-1.02   l-1.87-3.12c-0.47-0.79-0.35-1.79,0.3-2.44l3.45-3.45c0.65-0.65,1.65-0.77,2.44-0.3l3.12,1.87c0.31,0.19,0.7,0.18,1.02,0   c1.92-1.14,4-2.01,6.21-2.58c0.36-0.09,0.64-0.36,0.73-0.72l0.88-3.53C27.84,3.62,28.64,3,29.56,3h4.88c0.92,0,1.72,0.62,1.94,1.51   l0.88,3.53c0.09,0.36,0.37,0.63,0.73,0.72c0.07,0.02,0.13,0.04,0.2,0.05c1.28,0.34,2.51,0.79,3.69,1.32   c0.8,0.36,1.57,0.77,2.32,1.21c0.11,0.06,0.23,0.1,0.35,0.11c0.23,0.05,0.47,0.01,0.67-0.11l3.12-1.87   c0.79-0.47,1.79-0.35,2.44,0.3l0.73,0.73l2.72,2.72c0.65,0.65,0.77,1.65,0.3,2.44l-1.87,3.12c-0.19,0.31-0.18,0.7,0,1.02   c1.11,1.86,1.96,3.87,2.53,6.01c0.01,0.07,0.03,0.13,0.05,0.2c0.09,0.36,0.36,0.64,0.72,0.73l3.53,0.88   C60.38,27.84,61,28.64,61,29.56z"/>
	<polygon style="fill:#D3DDED;" points="27.083,16.497 28.321,18.761 30.585,19.999 28.321,21.237 27.083,23.501 25.844,21.237    23.58,19.999 25.844,18.761  "/>
	<polygon style="fill:#D3DDED;" points="36.809,41 37.664,42.564 39.228,43.419 37.664,44.274 36.809,45.838 35.954,44.274    34.39,43.419 35.954,42.564  "/>
	<polygon style="fill:#D3DDED;" points="51,30.646 51.583,31.711 52.648,32.294 51.583,32.877 51,33.942 50.417,32.877    49.352,32.294 50.417,31.711  "/>
	<g>
		<path style="fill:#8D6C9F;" d="M59.728,26.651l-3.519-0.886c-0.585-2.276-1.487-4.455-2.69-6.474l1.87-3.116    c0.709-1.183,0.524-2.689-0.451-3.665l-3.449-3.448c-0.976-0.975-2.48-1.16-3.665-0.451l-3.113,1.863    c-2.024-1.197-4.204-2.101-6.48-2.677l-0.881-3.526C37.014,2.935,35.817,2,34.438,2h-4.877c-1.379,0-2.576,0.935-2.911,2.272    l-0.884,3.519c-2.274,0.583-4.454,1.486-6.475,2.689l-3.116-1.869c-1.182-0.709-2.688-0.523-3.664,0.451l-3.449,3.448    c-0.975,0.976-1.16,2.482-0.451,3.665l1.863,3.113c-1.196,2.021-2.098,4.2-2.676,6.481l-3.526,0.881    C2.934,26.985,2,28.183,2,29.562v4.877c0,1.379,0.935,2.576,2.272,2.91l3.519,0.886c0.585,2.276,1.487,4.455,2.69,6.474    l-1.87,3.116c-0.709,1.183-0.524,2.689,0.451,3.665l3.449,3.448c0.976,0.975,2.481,1.161,3.665,0.451l3.113-1.863    c2.024,1.197,4.204,2.101,6.481,2.677l0.881,3.526C26.986,61.065,28.183,62,29.562,62h4.877c1.379,0,2.576-0.935,2.911-2.272    l0.884-3.519c2.274-0.583,4.454-1.486,6.475-2.689l3.116,1.869c1.183,0.71,2.689,0.523,3.664-0.451l3.449-3.448    c0.975-0.976,1.16-2.482,0.451-3.665l-1.863-3.113c1.196-2.021,2.098-4.2,2.677-6.481l3.525-0.881    C61.065,37.015,62,35.817,62,34.438v-4.877C62,28.183,61.066,26.985,59.728,26.651z M60,34.438c0,0.46-0.312,0.858-0.758,0.971    l-3.527,0.881c-0.708,0.179-1.261,0.733-1.444,1.446c-0.538,2.094-1.368,4.098-2.466,5.955c-0.378,0.635-0.378,1.419-0.001,2.046    l1.87,3.116c0.236,0.394,0.174,0.896-0.15,1.222l-3.449,3.448c-0.326,0.323-0.829,0.385-1.221,0.15l-3.116-1.869    c-0.626-0.377-1.41-0.377-2.045,0c-1.861,1.101-3.865,1.931-5.955,2.467c-0.715,0.183-1.27,0.736-1.448,1.446l-0.881,3.524    C35.297,59.688,34.898,60,34.438,60h-4.877c-0.459,0-0.859-0.312-0.97-0.757l-0.881-3.526c-0.178-0.709-0.733-1.263-1.447-1.445    c-2.091-0.536-4.095-1.366-5.956-2.467c-0.318-0.188-0.672-0.282-1.026-0.282c-0.354,0-0.706,0.094-1.02,0.282l-3.115,1.869    c-0.394,0.235-0.896,0.174-1.222-0.15l-3.448-3.448c-0.325-0.325-0.387-0.828-0.151-1.222l1.869-3.116    c0.377-0.627,0.377-1.411,0-2.044c-1.1-1.859-1.93-3.863-2.467-5.956c-0.183-0.714-0.736-1.269-1.446-1.447l-3.525-0.881    C4.312,35.297,4,34.898,4,34.438v-4.877c0-0.46,0.312-0.858,0.757-0.971l3.528-0.881c0.708-0.179,1.261-0.733,1.444-1.446    c0.538-2.094,1.368-4.098,2.467-5.956c0.376-0.636,0.376-1.419,0-2.045l-1.87-3.116c-0.236-0.394-0.174-0.896,0.15-1.222    l3.449-3.448c0.324-0.324,0.827-0.387,1.221-0.15l3.116,1.869c0.626,0.376,1.41,0.378,2.045,0    c1.861-1.101,3.865-1.931,5.955-2.467c0.716-0.183,1.271-0.737,1.447-1.446l0.881-3.524C28.703,4.312,29.102,4,29.562,4h4.877    c0.459,0,0.859,0.312,0.97,0.757l0.881,3.525c0.177,0.709,0.731,1.264,1.446,1.446c2.091,0.536,4.095,1.366,5.956,2.467    c0.635,0.376,1.418,0.378,2.046,0l3.115-1.869c0.395-0.235,0.897-0.174,1.222,0.15l3.448,3.448    c0.325,0.325,0.387,0.828,0.151,1.222l-1.869,3.116c-0.376,0.626-0.376,1.409,0,2.044c1.1,1.859,1.93,3.863,2.467,5.956    c0.183,0.714,0.736,1.269,1.446,1.447l3.525,0.881C59.688,28.703,60,29.102,60,29.562V34.438z"/>
		<path style="fill:#8D6C9F;" d="M47,24c0.552,0,1-0.447,1-1s-0.448-1-1-1h-4c-0.552,0-1,0.447-1,1s0.448,1,1,1h1v16h-1    c-0.552,0-1,0.447-1,1s0.448,1,1,1h4c0.552,0,1-0.447,1-1s-0.448-1-1-1h-1V24H47z"/>
		<path style="fill:#8D6C9F;" d="M26.788,41.97c0.095,0,0.192-0.014,0.288-0.042c0.529-0.159,0.83-0.717,0.671-1.245l-5.4-18    c-0.127-0.423-0.517-0.713-0.958-0.713s-0.831,0.29-0.958,0.713l-5.4,18c-0.159,0.528,0.142,1.086,0.671,1.245    c0.528,0.156,1.087-0.142,1.245-0.671l1.586-5.287h5.712l1.586,5.287C25.96,41.69,26.357,41.97,26.788,41.97z M19.132,33.97    l2.256-7.52l2.256,7.52H19.132z"/>
		<path style="fill:#8D6C9F;" d="M36,22h-5c-0.552,0-1,0.447-1,1v18c0,0.553,0.448,1,1,1s1-0.447,1-1v-7h4c2.206,0,4-1.794,4-4v-4    C40,23.794,38.206,22,36,22z M38,30c0,1.103-0.897,2-2,2h-4v-8h4c1.103,0,2,0.897,2,2V30z"/>
		<path style="fill:#8D6C9F;" d="M32,49c-0.552,0-1,0.447-1,1v2c0,0.553,0.448,1,1,1s1-0.447,1-1v-2C33,49.447,32.552,49,32,49z"/>
		<path style="fill:#8D6C9F;" d="M32,15c0.552,0,1-0.447,1-1v-2c0-0.553-0.448-1-1-1s-1,0.447-1,1v2C31,14.553,31.448,15,32,15z"/>
		<path style="fill:#8D6C9F;" d="M37.625,49.128c-0.143-0.534-0.691-0.853-1.225-0.707c-0.534,0.143-0.85,0.691-0.707,1.225    l0.518,1.932c0.12,0.447,0.523,0.741,0.965,0.741c0.085,0,0.173-0.011,0.259-0.034c0.534-0.143,0.85-0.691,0.707-1.225    L37.625,49.128z"/>
		<path style="fill:#8D6C9F;" d="M27.79,12.423c-0.143-0.534-0.692-0.854-1.225-0.707c-0.534,0.143-0.85,0.691-0.707,1.225    l0.518,1.932c0.12,0.447,0.523,0.741,0.965,0.741c0.085,0,0.173-0.011,0.259-0.034c0.534-0.143,0.85-0.691,0.707-1.225    L27.79,12.423z"/>
		<path style="fill:#8D6C9F;" d="M23.5,46.723c-0.478-0.276-1.09-0.113-1.366,0.366l-1,1.731c-0.276,0.479-0.113,1.09,0.366,1.366    c0.157,0.091,0.33,0.134,0.499,0.134c0.346,0,0.682-0.179,0.867-0.5l1-1.731C24.142,47.61,23.979,46.999,23.5,46.723z"/>
		<path style="fill:#8D6C9F;" d="M40.5,17.277c0.157,0.091,0.329,0.134,0.499,0.134c0.346,0,0.682-0.179,0.867-0.5l1-1.731    c0.276-0.479,0.113-1.09-0.366-1.366c-0.479-0.276-1.09-0.113-1.366,0.366l-1,1.731C39.858,16.39,40.021,17.001,40.5,17.277z"/>
		<path style="fill:#8D6C9F;" d="M41.866,47.089c-0.276-0.479-0.888-0.643-1.366-0.366c-0.479,0.276-0.642,0.888-0.366,1.366    l1,1.731c0.185,0.321,0.521,0.5,0.867,0.5c0.169,0,0.342-0.043,0.499-0.134c0.479-0.276,0.642-0.888,0.366-1.366L41.866,47.089z"/>
		<path style="fill:#8D6C9F;" d="M22.134,16.911c0.185,0.321,0.521,0.5,0.867,0.5c0.169,0,0.342-0.043,0.499-0.134    c0.479-0.276,0.642-0.888,0.366-1.366l-1-1.731c-0.276-0.479-0.889-0.643-1.366-0.366c-0.479,0.276-0.642,0.888-0.366,1.366    L22.134,16.911z"/>
		<path style="fill:#8D6C9F;" d="M27.6,48.421c-0.535-0.144-1.082,0.174-1.225,0.707l-0.518,1.932    c-0.143,0.533,0.173,1.082,0.707,1.225c0.087,0.023,0.174,0.034,0.259,0.034c0.441,0,0.846-0.294,0.965-0.741l0.518-1.932    C28.45,49.112,28.134,48.563,27.6,48.421z"/>
		<path style="fill:#8D6C9F;" d="M36.4,15.579c0.087,0.023,0.174,0.034,0.259,0.034c0.441,0,0.846-0.294,0.965-0.741l0.518-1.932    c0.143-0.533-0.173-1.082-0.707-1.225c-0.534-0.144-1.082,0.173-1.225,0.707l-0.518,1.932C35.55,14.888,35.866,15.437,36.4,15.579    z"/>
	</g>
</g>
</svg>
